<svg width="18" height="18" viewBox="0 0 18 18" fill="currentColor" xmlns="http://www.w3.org/2000/svg">
<path fill-rule="evenodd" clip-rule="evenodd" d="M11.8125 3.09375C11.8125 2.3171 12.4421 1.6875 13.2188 1.6875H14.9062C15.6829 1.6875 16.3125 2.3171 16.3125 3.09375V14.9062C16.3125 15.6829 15.6829 16.3125 14.9062 16.3125H13.2188C12.4421 16.3125 11.8125 15.6829 11.8125 14.9062V3.09375ZM13.2188 2.8125C13.0634 2.8125 12.9375 2.93842 12.9375 3.09375V14.9062C12.9375 15.0616 13.0634 15.1875 13.2188 15.1875H14.9062C15.0616 15.1875 15.1875 15.0616 15.1875 14.9062V3.09375C15.1875 2.93842 15.0616 2.8125 14.9062 2.8125H13.2188ZM6.75 6.46875C6.75 5.6921 7.3796 5.0625 8.15625 5.0625H9.84375C10.6204 5.0625 11.25 5.6921 11.25 6.46875V14.9062C11.25 15.6829 10.6204 16.3125 9.84375 16.3125H8.15625C7.3796 16.3125 6.75 15.6829 6.75 14.9062V6.46875ZM8.15625 6.1875C8.00092 6.1875 7.875 6.31342 7.875 6.46875V14.9062C7.875 15.0616 8.00092 15.1875 8.15625 15.1875H9.84375C9.99908 15.1875 10.125 15.0616 10.125 14.9062V6.46875C10.125 6.31342 9.99908 6.1875 9.84375 6.1875H8.15625ZM1.6875 9.84375C1.6875 9.0671 2.3171 8.4375 3.09375 8.4375H4.78125C5.5579 8.4375 6.1875 9.0671 6.1875 9.84375V14.9062C6.1875 15.6829 5.5579 16.3125 4.78125 16.3125H3.09375C2.3171 16.3125 1.6875 15.6829 1.6875 14.9062V9.84375ZM3.09375 9.5625C2.93842 9.5625 2.8125 9.68842 2.8125 9.84375V14.9062C2.8125 15.0616 2.93842 15.1875 3.09375 15.1875H4.78125C4.93658 15.1875 5.0625 15.0616 5.0625 14.9062V9.84375C5.0625 9.68842 4.93658 9.5625 4.78125 9.5625H3.09375Z"/>
</svg>
